<svg xmlns="http://www.w3.org/2000/svg" viewBox="0 0 64 64"><defs><linearGradient id="g" x1="8" y1="8" x2="56" y2="56"><stop stop-color="#b78cff"/><stop offset="1" stop-color="#7448f5"/></linearGradient></defs><rect width="64" height="64" rx="15" fill="#0b0710"/><rect x="4" y="4" width="56" height="56" rx="13" fill="none" stroke="url(#g)" stroke-width="3"/><path d="M17 44V20h12c7 0 11 4 11 10s-4 10-11 10h-5v4h-7zm7-11h5c3 0 4-1 4-3s-1-3-4-3h-5v6z" fill="#f5efff"/><path d="M48 23c-7 0-12 4-12 10s5 10 12 10c3 0 6-.8 8-2.3l-3.6-5.2c-1 .7-2.3 1.1-3.8 1.1-3 0-5-1.4-5-3.6s2-3.6 5-3.6c1.5 0 2.8.4 3.8 1.1l3.6-5.2C54 23.8 51 23 48 23z" fill="url(#g)"/></svg>